<svg width="476" height="476" viewBox="0 0 476 476" fill="none" xmlns="http://www.w3.org/2000/svg">
<path d="M178.344 256.537V236.911C167.396 229.447 157.039 220.582 147.49 210.07C119.84 236.787 93.3711 253.707 90.3853 255.604L87.8659 257.159L72.6255 232.806L75.1137 231.22C75.4247 231.002 102.36 213.926 129.575 187.271C104.599 150.849 94.9885 114.148 94.6153 112.562L93.8999 109.762L121.737 102.609L122.421 105.439C122.484 105.75 130.415 135.111 149.699 165.343C168.765 142.172 179.869 119.84 182.699 98.7831H65.7828V67.5246H130.228V50.138H160.274V67.4935H224.719V98.7831H211.749C208.732 128.051 193.865 158.376 167.458 189.013C171.004 192.994 174.643 196.633 178.344 200.117V198.095V185.405C178.344 174.954 186.804 166.494 197.255 166.494H281.389V17.6976C281.389 15.085 279.305 12.97 276.661 12.97H4.72765C2.115 12.97 0 15.085 0 17.6976V289.6C0 292.244 2.115 294.328 4.72765 294.328H178.344V256.537Z" fill="#8141AF"/>
<path d="M333.673 264.842H333.144C330.531 275.199 327.981 288.325 325.119 298.371L314.793 335.29H353.236L342.444 298.371C339.333 288.045 336.223 275.168 333.673 264.842Z" fill="#45266E"/>
<path d="M471.272 181.673H199.37C196.757 181.673 194.642 183.788 194.642 186.4V458.334C194.642 460.946 196.757 463.03 199.37 463.03H471.272C473.916 463.03 476 460.946 476 458.334V186.4C476 183.819 473.916 181.673 471.272 181.673ZM372.365 409.315L358.96 364.651H309.164L296.754 409.315H256.009L309.164 235.45H360.732L414.634 409.315H372.365Z" fill="#45266E"/>
<path d="M122.39 306.24H84.6001V369.068L115.89 400.047H186.182V362.256H122.39V306.24Z" fill="#8141AF"/>
</svg>
